<svg width="28" height="35" viewBox="0 0 28 35" fill="none" xmlns="http://www.w3.org/2000/svg">
<path d="M13.9892 0C6.3311 0 0 6.20261 0 13.8766C0 17.7437 1.3868 21.3338 3.67376 24.3767C6.17332 27.7332 9.24696 32.2914 12.7646 34.587C13.6432 35.1575 14.3656 35.1175 15.1662 34.587C18.6639 32.2914 21.8051 27.7332 24.3262 24.3767C26.6115 21.3338 28 17.7437 28 13.8766C28 6.20261 21.6689 0 13.9892 0Z" fill="#FF8A01"/>
<path d="M13.0166 7.698L12.3654 11.3543H13.8105L13.939 7.698H13.0166ZM14.3328 7.698L14.4614 11.3543H15.9065L15.2552 7.698H14.3328ZM8.73584 12.0051V12.9051H9.95948V14.6315H11.1926V12.9051H17.0793V14.6315H18.3124V12.9051H19.536V12.0051H8.73584ZM12.0548 13.8709L10.4515 22.0982H13.4329L13.7493 13.8709H12.0548ZM14.5227 13.8709L14.8391 22.0982H17.8204L16.2172 13.8709H14.5227Z" fill="white"/>
</svg>
